<svg  xmlns="http://www.w3.org/2000/svg"
version="1.1" 
x="0px" y="0px"
viewBox="0 0 511 511" style="enable-background:new 0 0 511 511;" xml:space="preserve"
>

 <g>

  <path stroke="#000000" fill="#bf0000" id="svg_1" d="m503.5,151.999l-88.5,0l0,-8.5c0,-4.142 -3.358,-7.5 -7.5,-7.5s-7.5,3.358 -7.5,7.5l0,8.5l-88.5,0c-4.142,0 -7.5,3.358 -7.5,7.5s3.358,7.5 7.5,7.5l88.5,0l0,10.234c-9.29,3.138 -16,11.93 -16,22.266l0,8.5l-42.234,0c-3.138,-9.29 -11.93,-16 -22.266,-16l-128,0c-10.336,0 -19.128,6.71 -22.266,16l-42.234,0l0,-8.5c0,-10.335 -6.71,-19.127 -16,-22.266l0,-10.234l88.5,0c4.142,0 7.5,-3.358 7.5,-7.5s-3.358,-7.5 -7.5,-7.5l-88.5,0l0,-8.5c0,-4.142 -3.358,-7.5 -7.5,-7.5s-7.5,3.358 -7.5,7.5l0,8.5l-88.5,0c-4.142,0 -7.5,3.358 -7.5,7.5s3.358,7.5 7.5,7.5l88.5,0l0,10.234c-9.29,3.138 -16,11.93 -16,22.266l0,32c0,12.958 10.542,23.5 23.5,23.5s23.5,-10.542 23.5,-23.5l0,-8.5l42.234,0c3.138,9.29 11.93,16 22.266,16l8.5,0l0,25.085c-13.522,0.952 -24.991,10.457 -28.321,23.775l-18.035,72.14l-10.144,0c-4.142,0 -7.5,3.358 -7.5,7.5s3.358,7.5 7.5,7.5l15.978,0c0.009,0 0.019,0.002 0.028,0.002c0.007,0 0.013,-0.002 0.02,-0.002l15.974,0c4.142,0 7.5,-3.358 7.5,-7.5s-3.358,-7.5 -7.5,-7.5l-6.394,0l17.125,-68.502c1.759,-7.036 7.856,-12.03 15.018,-12.456c3.15,9.269 11.931,15.958 22.251,15.958l64,0c10.32,0 19.101,-6.689 22.251,-15.958c7.161,0.426 13.259,5.42 15.018,12.456l17.125,68.502l-6.394,0c-4.142,0 -7.5,3.358 -7.5,7.5s3.358,7.5 7.5,7.5l15.974,0c0.007,0 0.013,0.002 0.02,0.002c0.009,0 0.019,-0.002 0.028,-0.002l15.978,0c4.142,0 7.5,-3.358 7.5,-7.5s-3.358,-7.5 -7.5,-7.5l-10.144,0l-18.035,-72.14c-3.329,-13.319 -14.799,-22.823 -28.321,-23.775l0,-25.085l8.5,0c10.336,0 19.128,-6.71 22.266,-16l42.234,0l0,8.5c0,12.958 10.542,23.5 23.5,23.5s23.5,-10.542 23.5,-23.5l0,-32c0,-10.335 -6.71,-19.127 -16,-22.266l0,-10.234l88.5,0c4.142,0 7.5,-3.358 7.5,-7.5s-3.358,-7.5 -7.5,-7.5zm-391.5,79.5c0,4.687 -3.813,8.5 -8.5,8.5s-8.5,-3.813 -8.5,-8.5l0,-32c0,-4.687 3.813,-8.5 8.5,-8.5s8.5,3.813 8.5,8.5l0,32zm207.5,-7.5l-16,0l-16,0c-4.142,0 -7.5,3.358 -7.5,7.5s3.358,7.5 7.5,7.5l8.5,0l0,32.5c0,4.687 -3.813,8.5 -8.5,8.5l-64,0c-4.687,0 -8.5,-3.813 -8.5,-8.5l0,-32.5l40.5,0c4.142,0 7.5,-3.358 7.5,-7.5s-3.358,-7.5 -7.5,-7.5l-48,0l-16,0c-4.687,0 -8.5,-3.813 -8.5,-8.5s3.813,-8.5 8.5,-8.5l128,0c4.687,0 8.5,3.813 8.5,8.5s-3.813,8.5 -8.5,8.5zm96.5,7.5c0,4.687 -3.813,8.5 -8.5,8.5s-8.5,-3.813 -8.5,-8.5l0,-32c0,-4.687 3.813,-8.5 8.5,-8.5s8.5,3.813 8.5,8.5l0,32z"/>
 </g>
</svg>