<?xml version="1.0" encoding="iso-8859-1"?>
<!-- Generator: Adobe Illustrator 17.1.0, SVG Export Plug-In . SVG Version: 6.00 Build 0)  -->
<!DOCTYPE svg PUBLIC "-//W3C//DTD SVG 1.1//EN" "http://www.w3.org/Graphics/SVG/1.1/DTD/svg11.dtd">
<svg version="1.1" id="Capa_1" xmlns="http://www.w3.org/2000/svg" xmlns:xlink="http://www.w3.org/1999/xlink" x="0px" y="0px"
	 viewBox="0 0 511 239" style="enable-background:new 0 0 511 239;" xml:space="preserve">
<path fill="#BB0000" stroke="#000000" stroke-opacity="0.8" d="M503.5,15.999999450683589 H415 v-8.5 c0,-4.142 -3.358,-7.5 -7.5,-7.5 s-7.5,3.358 -7.5,7.5 v8.5 h-88.5 c-4.142,0 -7.5,3.358 -7.5,7.5 s3.358,7.5 7.5,7.5 H400 v10.234 c-9.29,3.138 -16,11.93 -16,22.266 v8.5 h-42.234 c-3.138,-9.29 -11.93,-16 -22.266,-16 h-128 c-10.336,0 -19.128,6.71 -22.266,16 H127 v-8.5 c0,-10.335 -6.71,-19.127 -16,-22.266 v-10.234 h88.5 c4.142,0 7.5,-3.358 7.5,-7.5 s-3.358,-7.5 -7.5,-7.5 H111 v-8.5 c0,-4.142 -3.358,-7.5 -7.5,-7.5 s-7.5,3.358 -7.5,7.5 v8.5 H7.5 c-4.142,0 -7.5,3.358 -7.5,7.5 s3.358,7.5 7.5,7.5 H96 v10.234 c-9.29,3.138 -16,11.93 -16,22.266 v32 c0,12.958 10.542,23.5 23.5,23.5 s23.5,-10.542 23.5,-23.5 v-8.5 h42.234 c3.138,9.29 11.93,16 22.266,16 h8.5 v25.085 c-13.522,0.9520000000000003 -24.991,10.457 -28.321,23.775 l-18.035,72.14 H143.5 c-4.142,0 -7.5,3.358 -7.5,7.5 s3.358,7.5 7.5,7.5 h15.978 c0.009000000000000008,0 0.01900000000000001,0.0020000000000000013 0.02800000000000001,0.0020000000000000013 c0.007000000000000006,0 0.013000000000000008,-0.0020000000000000013 0.02000000000000001,-0.0020000000000000013 H175.5 c4.142,0 7.5,-3.358 7.5,-7.5 s-3.358,-7.5 -7.5,-7.5 h-6.394 l17.125,-68.502 c1.7590000000000003,-7.036 7.856,-12.03 15.018,-12.456 c3.15,9.269 11.931000000000001,15.958 22.251,15.958 h64 c10.32,0 19.101,-6.689 22.251,-15.958 c7.161,0.42600000000000016 13.259,5.42 15.018,12.456 l17.125,68.502 H335.5 c-4.142,0 -7.5,3.358 -7.5,7.5 s3.358,7.5 7.5,7.5 h15.974 c0.007000000000000006,0 0.013000000000000008,0.0020000000000000013 0.02000000000000001,0.0020000000000000013 c0.009000000000000008,0 0.01900000000000001,-0.0020000000000000013 0.02800000000000001,-0.0020000000000000013 H367.5 c4.142,0 7.5,-3.358 7.5,-7.5 s-3.358,-7.5 -7.5,-7.5 h-10.144 l-18.035,-72.14 c-3.329,-13.319 -14.799,-22.823 -28.321,-23.775 v-25.085 h8.5 c10.336,0 19.128,-6.71 22.266,-16 H384 v8.5 c0,12.958 10.542,23.5 23.5,23.5 s23.5,-10.542 23.5,-23.5 v-32 c0,-10.335 -6.71,-19.127 -16,-22.266 v-10.234 h88.5 c4.142,0 7.5,-3.358 7.5,-7.5 S507.642,15.999999450683589 503.5,15.999999450683589 zM112,95.49999945068359 c0,4.687 -3.813,8.5 -8.5,8.5 s-8.5,-3.813 -8.5,-8.5 v-32 c0,-4.687 3.813,-8.5 8.5,-8.5 s8.5,3.813 8.5,8.5 V95.49999945068359 zM319.5,87.99999945068359 h-16 h-16 c-4.142,0 -7.5,3.358 -7.5,7.5 s3.358,7.5 7.5,7.5 h8.5 v32.5 c0,4.687 -3.813,8.5 -8.5,8.5 h-64 c-4.687,0 -8.5,-3.813 -8.5,-8.5 v-32.5 h40.5 c4.142,0 7.5,-3.358 7.5,-7.5 s-3.358,-7.5 -7.5,-7.5 h-48 h-16 c-4.687,0 -8.5,-3.813 -8.5,-8.5 s3.813,-8.5 8.5,-8.5 h128 c4.687,0 8.5,3.813 8.5,8.5 S324.187,87.99999945068359 319.5,87.99999945068359 zM416,95.49999945068359 c0,4.687 -3.813,8.5 -8.5,8.5 s-8.5,-3.813 -8.5,-8.5 v-32 c0,-4.687 3.813,-8.5 8.5,-8.5 s8.5,3.813 8.5,8.5 V95.49999945068359 z" id="svg_1" class=""/>
	 
</svg>
