<svg version="1.1" id="Capa_1" xmlns="http://www.w3.org/2000/svg" xmlns:xlink="http://www.w3.org/1999/xlink" 
x="0px" y="0px"
	 viewBox="0 0 511 511" style="enable-background:new 0 0 511 511;" xml:space="preserve">

 <g>
  <g id="svg_1">
   <path stroke="#000000" fill="#bf0000" id="svg_2" d="m87.5,416.001c-1.97,0 -3.91,0.8 -5.3,2.2c-1.4,1.39 -2.2,3.33 -2.2,5.3s0.8,3.91 2.2,5.3c1.39,1.4 3.32,2.2 5.3,2.2c1.97,0 3.91,-0.8 5.3,-2.2c1.4,-1.39 2.2,-3.33 2.2,-5.3s-0.8,-3.91 -2.2,-5.3c-1.39,-1.401 -3.33,-2.2 -5.3,-2.2z"/>
   <path stroke="#000000" fill="#bf0000" id="svg_3" d="m498.197,338.197l-58.372,58.372c-4.764,-2.898 -10.353,-4.569 -16.325,-4.569c-5.972,0 -11.561,1.67 -16.325,4.568l-12.758,-12.758c7.285,-12.232 5.244,-28.694 -5.564,-39.501l-29.136,-29.136c-15.938,-15.938 -24.717,-37.131 -24.717,-59.672c0,-22.542 8.778,-43.734 24.717,-59.674l29.136,-29.136c10.808,-10.808 12.849,-27.27 5.564,-39.501l12.758,-12.758c4.764,2.898 10.353,4.569 16.325,4.569c5.972,0 11.561,-1.671 16.325,-4.569l58.372,58.372c1.464,1.465 3.384,2.197 5.303,2.197s3.839,-0.732 5.303,-2.197c2.929,-2.929 2.929,-7.678 0,-10.606l-58.372,-58.372c2.899,-4.764 4.569,-10.354 4.569,-16.325c0,-17.369 -14.131,-31.5 -31.5,-31.5c-5.972,0 -11.561,1.67 -16.325,4.568l-58.371,-58.372c-2.928,-2.929 -7.677,-2.929 -10.606,0s-2.929,7.678 0,10.606l58.372,58.372c-2.899,4.764 -4.57,10.353 -4.57,16.326c0,5.972 1.671,11.561 4.569,16.325l-12.746,12.746c-4.874,-2.957 -10.503,-4.57 -16.323,-4.57c-8.417,0 -16.327,3.278 -22.272,9.228l-30.055,30.055c-15.939,15.939 -37.132,24.718 -59.673,24.718s-43.734,-8.778 -59.673,-24.718l-30.052,-30.052c-5.947,-5.952 -13.858,-9.23 -22.274,-9.23c-5.821,0 -11.449,1.613 -16.323,4.57l-12.746,-12.746c2.898,-4.765 4.568,-10.355 4.568,-16.326c0,-5.972 -1.671,-11.562 -4.569,-16.325l58.372,-58.372c2.929,-2.929 2.929,-7.678 0,-10.606c-2.929,-2.929 -7.678,-2.929 -10.606,0l-58.372,58.372c-4.764,-2.898 -10.353,-4.568 -16.325,-4.568c-17.369,0 -31.5,14.131 -31.5,31.5c0,5.972 1.671,11.561 4.569,16.324l-58.372,58.371c-2.929,2.929 -2.929,7.678 0,10.606c1.464,1.465 3.384,2.197 5.303,2.197c1.919,0 3.839,-0.732 5.303,-2.197l58.372,-58.372c4.764,2.898 10.353,4.569 16.325,4.569s11.561,-1.671 16.325,-4.569l12.758,12.758c-7.286,12.232 -5.244,28.694 5.564,39.501l29.136,29.136c15.939,15.94 24.717,37.133 24.717,59.675c0,22.542 -8.778,43.734 -24.717,59.673l-29.136,29.136c-10.807,10.808 -12.849,27.269 -5.564,39.501l-12.758,12.758c-4.764,-2.898 -10.353,-4.568 -16.325,-4.568c-5.972,0 -11.561,1.67 -16.325,4.569l-58.372,-58.372c-2.929,-2.929 -7.678,-2.929 -10.606,0c-2.929,2.929 -2.929,7.677 0,10.606l58.372,58.372c-2.898,4.764 -4.569,10.352 -4.569,16.325c0,17.369 14.131,31.5 31.5,31.5c5.972,0 11.561,-1.671 16.324,-4.569l58.372,58.372c1.464,1.464 3.384,2.197 5.303,2.197s3.839,-0.732 5.303,-2.197c2.929,-2.929 2.929,-7.677 0,-10.606l-58.372,-58.372c2.898,-4.764 4.569,-10.353 4.569,-16.325c0,-5.972 -1.671,-11.562 -4.569,-16.325l12.746,-12.745c4.874,2.956 10.503,4.57 16.323,4.57c8.417,0 16.327,-3.278 22.272,-9.229l30.055,-30.054c15.939,-15.939 37.132,-24.717 59.673,-24.717s43.734,8.778 59.673,24.717l30.052,30.052c5.947,5.952 13.858,9.23 22.274,9.23c5.821,0 11.45,-1.614 16.323,-4.571l12.746,12.746c-2.898,4.764 -4.569,10.353 -4.569,16.325c0,5.972 1.671,11.561 4.569,16.325l-58.372,58.372c-2.929,2.929 -2.929,7.677 0,10.606c1.464,1.464 3.384,2.197 5.303,2.197s3.839,-0.732 5.303,-2.197l58.372,-58.372c4.764,2.898 10.353,4.569 16.325,4.569c17.369,0 31.5,-14.131 31.5,-31.5c0,-5.972 -1.671,-11.561 -4.569,-16.325l58.372,-58.372c2.929,-2.929 2.929,-7.677 0,-10.606c-2.926,-2.929 -7.675,-2.929 -10.604,0zm-74.697,-267.196c9.098,0 16.5,7.401 16.5,16.5c0,9.098 -7.402,16.5 -16.5,16.5s-16.5,-7.402 -16.5,-16.5c0,-9.099 7.402,-16.5 16.5,-16.5zm-352.5,16.5c0,-9.099 7.402,-16.5 16.5,-16.5s16.5,7.401 16.5,16.5c0,9.098 -7.402,16.5 -16.5,16.5s-16.5,-7.403 -16.5,-16.5zm16.5,352.5c-9.098,0 -16.5,-7.402 -16.5,-16.5c0,-9.099 7.402,-16.5 16.5,-16.5s16.5,7.401 16.5,16.5c0,9.097 -7.402,16.5 -16.5,16.5zm268.335,-60.835l-30.055,-30.054c-16.994,-16.994 -39.057,-27.075 -62.78,-28.833l0,-40.777c0,-4.143 -3.358,-7.5 -7.5,-7.5s-7.5,3.357 -7.5,7.5l0,40.777c-23.723,1.758 -45.786,11.84 -62.78,28.833l-30.057,30.057c-3.113,3.116 -7.255,4.833 -11.663,4.833c-4.81,0 -9.379,-2.104 -12.535,-5.773c-5.488,-6.38 -4.686,-16.837 1.788,-23.311l29.136,-29.136c16.994,-16.994 27.075,-39.057 28.833,-62.78l40.778,0c4.142,0 7.5,-3.358 7.5,-7.5c0,-4.143 -3.358,-7.5 -7.5,-7.5l-40.778,0c-1.758,-23.723 -11.839,-45.787 -28.833,-62.78l-29.136,-29.136c-6.474,-6.475 -7.276,-16.932 -1.788,-23.312c3.156,-3.668 7.725,-5.772 12.535,-5.772c4.408,0 8.55,1.716 11.666,4.834l30.055,30.055c16.994,16.994 39.057,27.075 62.78,28.833l0,40.778c0,4.142 3.358,7.5 7.5,7.5s7.5,-3.358 7.5,-7.5l0,-40.778c23.723,-1.758 45.786,-11.84 62.78,-28.833l30.057,-30.057c3.113,-3.116 7.255,-4.832 11.663,-4.832c4.81,0 9.379,2.104 12.535,5.772c5.488,6.38 4.686,16.837 -1.788,23.312l-29.136,29.136c-16.994,16.993 -27.075,39.057 -28.833,62.78l-40.779,0c-4.142,0 -7.5,3.357 -7.5,7.5c0,4.142 3.358,7.5 7.5,7.5l40.778,0c1.758,23.723 11.839,45.786 28.833,62.78l29.136,29.135c6.474,6.475 7.276,16.932 1.788,23.311c-3.156,3.669 -7.725,5.773 -12.535,5.773c-4.407,0 -8.549,-1.717 -11.665,-4.835zm67.665,60.835c-9.098,0 -16.5,-7.402 -16.5,-16.5c0,-9.099 7.402,-16.5 16.5,-16.5s16.5,7.401 16.5,16.5c0,9.097 -7.402,16.5 -16.5,16.5z"/>
   <path stroke="#000000" fill="#bf0000" id="svg_4" d="m423.5,416.001c-1.97,0 -3.91,0.8 -5.3,2.2c-1.4,1.39 -2.2,3.33 -2.2,5.3s0.8,3.91 2.2,5.3c1.39,1.4 3.33,2.2 5.3,2.2c1.97,0 3.91,-0.8 5.3,-2.2c1.4,-1.39 2.2,-3.33 2.2,-5.3s-0.8,-3.91 -2.2,-5.3c-1.39,-1.401 -3.33,-2.2 -5.3,-2.2z"/>
   <path stroke="#000000" fill="#bf0000" id="svg_5" d="m423.5,95.001c1.97,0 3.91,-0.8 5.3,-2.2c1.4,-1.39 2.2,-3.33 2.2,-5.3c0,-1.98 -0.8,-3.91 -2.2,-5.3c-1.39,-1.4 -3.33,-2.2 -5.3,-2.2c-1.97,0 -3.91,0.8 -5.3,2.2c-1.4,1.39 -2.2,3.32 -2.2,5.3c0,1.97 0.8,3.91 2.2,5.3c1.39,1.4 3.33,2.2 5.3,2.2z"/>
   <path stroke="#000000" fill="#bf0000" id="svg_6" d="m87.5,80.001c-1.97,0 -3.91,0.8 -5.3,2.2c-1.4,1.39 -2.2,3.33 -2.2,5.3s0.8,3.91 2.2,5.3c1.39,1.4 3.33,2.2 5.3,2.2c1.97,0 3.91,-0.8 5.3,-2.2c1.4,-1.39 2.2,-3.33 2.2,-5.3s-0.8,-3.91 -2.2,-5.3c-1.39,-1.401 -3.33,-2.2 -5.3,-2.2z"/>
  </g>
  <path stroke="#ffffff" id="svg_23" d="m196.90548,145.001538l57.116811,-142.127916l57.116811,142.127916l-114.233623,0z" fill="#00ff00"/>
 </g>
</svg>