<?xml version="1.0" encoding="utf-8"?>
<!-- Generator: Adobe Illustrator 17.1.0, SVG Export Plug-In . SVG Version: 6.00 Build 0)  -->
<!DOCTYPE svg PUBLIC "-//W3C//DTD SVG 1.1//EN" "http://www.w3.org/Graphics/SVG/1.1/DTD/svg11.dtd">
<svg version="1.1" id="Layer_1" xmlns="http://www.w3.org/2000/svg" xmlns:xlink="http://www.w3.org/1999/xlink" x="0px" y="0px"
	 width="400.667px" height="400.666px" viewBox="0 0 400.7 400.7" enable-background="new 0 0 400.7 400.7" xml:space="preserve">
<g id="Layer_2_1_">
	<path fill="#F3F3F3" d="M201.5,3.4C92.4,3.4,4,91.9,4,201s88.5,197.6,197.6,197.6S399.1,310.1,399.1,201S310.6,3.4,201.5,3.4z
		 M201.5,375.3c-96.3,0-174.4-78.1-174.4-174.4c0-96.3,78.1-174.4,174.4-174.4c96.3,0,174.4,78.1,174.4,174.4
		S297.8,375.3,201.5,375.3z"/>
	<line fill="#282828" stroke="#2F2525" stroke-width="4" stroke-miterlimit="10" x1="6" y1="200.5" x2="25.7" y2="200.5"/>
	<line fill="#282828" stroke="#2F2525" stroke-width="4" stroke-miterlimit="10" x1="378.3" y1="201" x2="398" y2="201"/>
	<line fill="#282828" stroke="#2F2525" stroke-width="4" stroke-miterlimit="10" x1="25.7" y1="116" x2="39.1" y2="124.1"/>
	<line fill="#282828" stroke="#2F2525" stroke-width="4" stroke-miterlimit="10" x1="364.4" y1="124.1" x2="378.3" y2="116"/>
	<line fill="#282828" stroke="#2F2525" stroke-width="4" stroke-miterlimit="10" x1="87.6" y1="62.2" x2="79.7" y2="48.5"/>
	<line fill="#282828" stroke="#2F2525" stroke-width="4" stroke-miterlimit="10" x1="315.7" y1="63.2" x2="323.9" y2="49.5"/>
	<polygon fill="#282828" points="195.6,7.6 207.2,7.6 201.4,23.1 	"/>
	<polygon fill="#282828" points="59.3,76.4 56.5,79.1 62.3,82 	"/>
	<polygon fill="#282828" points="339.7,82 342.5,76.4 345.5,79.2 	"/>
</g>
<text transform="matrix(1 0 0 1 415.0196 4.3616)" font-family="'MyriadPro-Regular'" font-size="12">767676</text>
</svg>
