<?xml version="1.0" encoding="utf-8"?>
<!-- Generator: Adobe Illustrator 17.1.0, SVG Export Plug-In . SVG Version: 6.00 Build 0)  -->
<!DOCTYPE svg PUBLIC "-//W3C//DTD SVG 1.1//EN" "http://www.w3.org/Graphics/SVG/1.1/DTD/svg11.dtd">
<svg version="1.1" id="Layer_1" xmlns="http://www.w3.org/2000/svg" xmlns:xlink="http://www.w3.org/1999/xlink" x="0px" y="0px"
	  width="400.667px" height="400.666px" viewBox="0 0 400.7 400.7" enable-background="new 0 0 400.7 400.7" xml:space="preserve">
<filter  filterUnits="objectBoundingBox" id="AI_Shadow_1">
	<feGaussianBlur  stdDeviation="5" result="blur" in="SourceAlpha"></feGaussianBlur>
	<feOffset  dx="0" dy="0" result="offsetBlurredAlpha" in="blur"></feOffset>
	<feMerge>
		<feMergeNode  in="offsetBlurredAlpha"></feMergeNode>
		<feMergeNode  in="SourceGraphic"></feMergeNode>
	</feMerge>
</filter>
<g filter="url(#AI_Shadow_1)">
	
		<linearGradient id="SVGID_1_" gradientUnits="userSpaceOnUse" x1="201.0273" y1="68.8814" x2="201.0273" y2="328.7434" gradientTransform="matrix(1 0 0 -1 0 400)">
		<stop  offset="0" style="stop-color:#bebebe"/>
		<stop  offset="0.4999" style="stop-color:#bebebe"/>
		<stop  offset="0.5001" style="stop-color:#e1ebed"/>
		<stop  offset="1" style="stop-color:#e1ebed"/>
	</linearGradient>
	<path fill="url(#SVGID_1_)" d="M373.7,201.2c0,71.7-58.1,129.8-129.7,129.9c-0.1,0-85.6,0-85.7,0c-71.8,0-129.9-58.2-129.9-129.9
		S86.5,71.3,158.3,71.3c0,0,85.6,0,85.6,0C315.6,71.3,373.7,129.5,373.7,201.2z"/>
</g>
<line fill="none" stroke="#FFFFFF" stroke-width="2" stroke-miterlimit="10" x1="54" y1="200.4" x2="349.2" y2="200.4"/>
<line fill="none" stroke="#3D3D3D" stroke-width="2" stroke-miterlimit="10" x1="179.9" y1="179" x2="222.6" y2="179"/>
<line fill="none" stroke="#3D3D3D" stroke-width="2" stroke-miterlimit="10" x1="180.2" y1="223.7" x2="223" y2="223.7"/>
<line fill="none" stroke="#3D3D3D" stroke-width="2" stroke-miterlimit="10" x1="180" y1="271.4" x2="222.7" y2="271.4"/>
<line fill="none" stroke="#3D3D3D" stroke-width="2" stroke-miterlimit="10" x1="180.2" y1="131.2" x2="223" y2="131.2"/>
<line fill="none" stroke="#3D3D3D" stroke-width="2" stroke-miterlimit="10" x1="166.3" y1="155.2" x2="234.7" y2="155.2"/>
<line fill="none" stroke="#3D3D3D" stroke-width="2" stroke-miterlimit="10" x1="166.3" y1="247.6" x2="234.7" y2="247.6"/>
<line fill="none" stroke="#3D3D3D" stroke-width="2" stroke-miterlimit="10" x1="149.2" y1="295.2" x2="251.8" y2="295.2"/>
<line fill="none" stroke="#3D3D3D" stroke-width="2" stroke-miterlimit="10" x1="149.2" y1="107.2" x2="251.8" y2="107.2"/>
<g>
	<path fill="#3D3D3D" d="M143.4,148h3.8v13.5h-2.6v-11.1h-2.8L143.4,148z"/>
	<path fill="#3D3D3D" d="M154,147.7c1,0,1.8,0.2,2.5,0.7c0.7,0.5,1.3,1.2,1.7,2.2c0.4,1,0.6,2.4,0.6,4.2c0,1.8-0.2,3.2-0.6,4.2
		c-0.4,1-0.9,1.7-1.6,2.2c-0.7,0.5-1.5,0.7-2.5,0.7c-1,0-1.9-0.2-2.6-0.7c-0.7-0.5-1.2-1.2-1.6-2.1s-0.6-2.3-0.6-4.1
		c0-2.5,0.4-4.3,1.1-5.4C151.3,148.3,152.5,147.7,154,147.7z M154.1,150.1c-0.4,0-0.8,0.1-1.2,0.4c-0.3,0.3-0.6,0.8-0.8,1.4
		c-0.2,0.7-0.3,1.7-0.3,3c0,1.7,0.2,2.9,0.6,3.5c0.4,0.7,0.9,1,1.6,1c0.6,0,1.1-0.3,1.5-0.9c0.4-0.7,0.7-2,0.7-3.7
		c0-1.8-0.2-3-0.6-3.7S154.7,150.1,154.1,150.1z"/>
</g>
<g>
	<path fill="#3D3D3D" d="M124.5,104.7H122c0.1-1.5,0.5-2.6,1.4-3.4c0.8-0.8,1.9-1.3,3.3-1.3c0.8,0,1.5,0.2,2.2,0.5
		c0.6,0.3,1.1,0.8,1.5,1.5c0.4,0.7,0.6,1.3,0.6,2c0,0.8-0.2,1.7-0.7,2.6s-1.3,2-2.5,3.3l-1.5,1.6h4.8v2.4h-9.4v-1.2l4.2-4.3
		c1-1,1.7-1.8,2-2.5c0.3-0.6,0.5-1.2,0.5-1.7c0-0.5-0.2-1-0.5-1.3c-0.3-0.3-0.8-0.5-1.3-0.5c-0.6,0-1,0.2-1.4,0.6
		S124.5,104,124.5,104.7z"/>
	<path fill="#3D3D3D" d="M137,100c1,0,1.8,0.2,2.5,0.7c0.7,0.5,1.3,1.2,1.7,2.2c0.4,1,0.6,2.4,0.6,4.2c0,1.8-0.2,3.2-0.6,4.2
		c-0.4,1-0.9,1.7-1.6,2.2c-0.7,0.5-1.5,0.7-2.5,0.7c-1,0-1.9-0.2-2.6-0.7c-0.7-0.5-1.2-1.2-1.6-2.1s-0.6-2.3-0.6-4.1
		c0-2.5,0.4-4.3,1.1-5.4C134.3,100.6,135.5,100,137,100z M137.1,102.4c-0.4,0-0.8,0.1-1.2,0.4c-0.3,0.3-0.6,0.8-0.8,1.4
		c-0.2,0.7-0.3,1.7-0.3,3c0,1.7,0.2,2.9,0.6,3.5c0.4,0.7,0.9,1,1.6,1c0.6,0,1.1-0.3,1.5-0.9c0.4-0.7,0.7-2,0.7-3.7
		c0-1.8-0.2-3-0.6-3.7S137.7,102.4,137.1,102.4z"/>
</g>
<g>
	<path fill="#3D3D3D" d="M260.2,104.5h-2.5c0.1-1.5,0.5-2.6,1.4-3.4c0.8-0.8,1.9-1.3,3.3-1.3c0.8,0,1.5,0.2,2.2,0.5
		c0.6,0.3,1.1,0.8,1.5,1.5c0.4,0.7,0.6,1.3,0.6,2c0,0.8-0.2,1.7-0.7,2.6c-0.5,0.9-1.3,2-2.5,3.3l-1.5,1.6h4.8v2.4h-9.4v-1.2l4.2-4.3
		c1-1,1.7-1.8,2-2.5c0.3-0.6,0.5-1.2,0.5-1.7c0-0.5-0.2-1-0.5-1.3c-0.3-0.3-0.8-0.5-1.3-0.5c-0.6,0-1,0.2-1.4,0.6
		S260.2,103.8,260.2,104.5z"/>
	<path fill="#3D3D3D" d="M272.7,99.8c1,0,1.8,0.2,2.5,0.7c0.7,0.5,1.3,1.2,1.7,2.2c0.4,1,0.6,2.4,0.6,4.2c0,1.8-0.2,3.2-0.6,4.2
		c-0.4,1-0.9,1.7-1.6,2.2c-0.7,0.5-1.5,0.7-2.5,0.7s-1.9-0.2-2.6-0.7c-0.7-0.5-1.2-1.2-1.6-2.1s-0.6-2.3-0.6-4.1
		c0-2.5,0.4-4.3,1.1-5.4C270,100.4,271.2,99.8,272.7,99.8z M272.8,102.3c-0.4,0-0.8,0.1-1.2,0.4c-0.3,0.3-0.6,0.8-0.8,1.4
		c-0.2,0.7-0.3,1.7-0.3,3c0,1.7,0.2,2.9,0.6,3.5c0.4,0.7,0.9,1,1.6,1c0.6,0,1.1-0.3,1.5-0.9c0.4-0.7,0.7-2,0.7-3.7
		c0-1.8-0.2-3-0.6-3.7C273.9,102.6,273.4,102.3,272.8,102.3z"/>
</g>
<g>
	<path fill="#3D3D3D" d="M242.1,148h3.8v13.5h-2.6v-11.1h-2.8L242.1,148z"/>
	<path fill="#3D3D3D" d="M252.7,147.7c1,0,1.8,0.2,2.5,0.7c0.7,0.5,1.3,1.2,1.7,2.2c0.4,1,0.6,2.4,0.6,4.2c0,1.8-0.2,3.2-0.6,4.2
		c-0.4,1-0.9,1.7-1.6,2.2c-0.7,0.5-1.5,0.7-2.5,0.7c-1,0-1.9-0.2-2.6-0.7c-0.7-0.5-1.2-1.2-1.6-2.1s-0.6-2.3-0.6-4.1
		c0-2.5,0.4-4.3,1.1-5.4C250,148.3,251.1,147.7,252.7,147.7z M252.7,150.1c-0.4,0-0.8,0.1-1.2,0.4c-0.3,0.3-0.6,0.8-0.8,1.4
		c-0.2,0.7-0.3,1.7-0.3,3c0,1.7,0.2,2.9,0.6,3.5c0.4,0.7,0.9,1,1.6,1c0.6,0,1.1-0.3,1.5-0.9c0.4-0.7,0.7-2,0.7-3.7
		c0-1.8-0.2-3-0.6-3.7S253.4,150.1,252.7,150.1z"/>
</g>
<g>
	<path fill="#3D3D3D" d="M143.4,240.3h3.8v13.5h-2.6v-11.1h-2.8L143.4,240.3z"/>
	<path fill="#3D3D3D" d="M154,240c1,0,1.8,0.2,2.5,0.7c0.7,0.5,1.3,1.2,1.7,2.2c0.4,1,0.6,2.4,0.6,4.2c0,1.8-0.2,3.2-0.6,4.2
		c-0.4,1-0.9,1.7-1.6,2.2c-0.7,0.5-1.5,0.7-2.5,0.7c-1,0-1.9-0.2-2.6-0.7c-0.7-0.5-1.2-1.2-1.6-2.1s-0.6-2.3-0.6-4.1
		c0-2.5,0.4-4.3,1.1-5.4C151.3,240.6,152.5,240,154,240z M154.1,242.4c-0.4,0-0.8,0.1-1.2,0.4c-0.3,0.3-0.6,0.8-0.8,1.4
		c-0.2,0.7-0.3,1.7-0.3,3c0,1.7,0.2,2.9,0.6,3.5c0.4,0.7,0.9,1,1.6,1c0.6,0,1.1-0.3,1.5-0.9c0.4-0.7,0.7-2,0.7-3.7
		c0-1.8-0.2-3-0.6-3.7S154.7,242.4,154.1,242.4z"/>
</g>
<g>
	<path fill="#3D3D3D" d="M242.1,240.3h3.8v13.5h-2.6v-11.1h-2.8L242.1,240.3z"/>
	<path fill="#3D3D3D" d="M252.7,240c1,0,1.8,0.2,2.5,0.7c0.7,0.5,1.3,1.2,1.7,2.2c0.4,1,0.6,2.4,0.6,4.2c0,1.8-0.2,3.2-0.6,4.2
		c-0.4,1-0.9,1.7-1.6,2.2c-0.7,0.5-1.5,0.7-2.5,0.7c-1,0-1.9-0.2-2.6-0.7c-0.7-0.5-1.2-1.2-1.6-2.1s-0.6-2.3-0.6-4.1
		c0-2.5,0.4-4.3,1.1-5.4C250,240.6,251.1,240,252.7,240z M252.7,242.4c-0.4,0-0.8,0.1-1.2,0.4c-0.3,0.3-0.6,0.8-0.8,1.4
		c-0.2,0.7-0.3,1.7-0.3,3c0,1.7,0.2,2.9,0.6,3.5c0.4,0.7,0.9,1,1.6,1c0.6,0,1.1-0.3,1.5-0.9c0.4-0.7,0.7-2,0.7-3.7
		c0-1.8-0.2-3-0.6-3.7S253.4,242.4,252.7,242.4z"/>
</g>
<g>
	<path fill="#3D3D3D" d="M124.5,292.7H122c0.1-1.5,0.5-2.6,1.4-3.4c0.8-0.8,1.9-1.3,3.3-1.3c0.8,0,1.5,0.2,2.2,0.5
		c0.6,0.3,1.1,0.8,1.5,1.5c0.4,0.7,0.6,1.3,0.6,2c0,0.8-0.2,1.7-0.7,2.6c-0.5,0.9-1.3,2-2.5,3.3l-1.5,1.6h4.8v2.4h-9.4v-1.2l4.2-4.3
		c1-1,1.7-1.8,2-2.5s0.5-1.2,0.5-1.7c0-0.5-0.2-1-0.5-1.3c-0.3-0.3-0.8-0.5-1.3-0.5c-0.6,0-1,0.2-1.4,0.6S124.5,292,124.5,292.7z"/>
	<path fill="#3D3D3D" d="M137,288c1,0,1.8,0.2,2.5,0.7c0.7,0.5,1.3,1.2,1.7,2.2c0.4,1,0.6,2.4,0.6,4.2c0,1.8-0.2,3.2-0.6,4.2
		c-0.4,1-0.9,1.7-1.6,2.2c-0.7,0.5-1.5,0.7-2.5,0.7c-1,0-1.9-0.2-2.6-0.7s-1.2-1.2-1.6-2.1c-0.4-1-0.6-2.3-0.6-4.1
		c0-2.5,0.4-4.3,1.1-5.4C134.3,288.7,135.5,288,137,288z M137.1,290.5c-0.4,0-0.8,0.1-1.2,0.4c-0.3,0.3-0.6,0.8-0.8,1.4
		c-0.2,0.7-0.3,1.7-0.3,3c0,1.7,0.2,2.9,0.6,3.5c0.4,0.7,0.9,1,1.6,1c0.6,0,1.1-0.3,1.5-0.9c0.4-0.7,0.7-2,0.7-3.7
		c0-1.8-0.2-3-0.6-3.7S137.7,290.5,137.1,290.5z"/>
</g>
<g>
	<path fill="#3D3D3D" d="M260.2,292.6h-2.5c0.1-1.5,0.5-2.6,1.4-3.4c0.8-0.8,1.9-1.3,3.3-1.3c0.8,0,1.5,0.2,2.2,0.5
		c0.6,0.3,1.1,0.8,1.5,1.5c0.4,0.7,0.6,1.3,0.6,2c0,0.8-0.2,1.7-0.7,2.6c-0.5,0.9-1.3,2-2.5,3.3l-1.5,1.6h4.8v2.4h-9.4v-1.2l4.2-4.3
		c1-1,1.7-1.8,2-2.5c0.3-0.6,0.5-1.2,0.5-1.7c0-0.5-0.2-1-0.5-1.3c-0.3-0.3-0.8-0.5-1.3-0.5c-0.6,0-1,0.2-1.4,0.6
		S260.2,291.9,260.2,292.6z"/>
	<path fill="#3D3D3D" d="M272.7,287.9c1,0,1.8,0.2,2.5,0.7c0.7,0.5,1.3,1.2,1.7,2.2c0.4,1,0.6,2.4,0.6,4.2c0,1.8-0.2,3.2-0.6,4.2
		c-0.4,1-0.9,1.7-1.6,2.2c-0.7,0.5-1.5,0.7-2.5,0.7s-1.9-0.2-2.6-0.7c-0.7-0.5-1.2-1.2-1.6-2.1c-0.4-1-0.6-2.3-0.6-4.1
		c0-2.5,0.4-4.3,1.1-5.4C270,288.5,271.2,287.9,272.7,287.9z M272.8,290.3c-0.4,0-0.8,0.1-1.2,0.4c-0.3,0.3-0.6,0.8-0.8,1.4
		c-0.2,0.7-0.3,1.7-0.3,3c0,1.7,0.2,2.9,0.6,3.5c0.4,0.7,0.9,1,1.6,1c0.6,0,1.1-0.3,1.5-0.9c0.4-0.7,0.7-2,0.7-3.7
		c0-1.8-0.2-3-0.6-3.7C273.9,290.7,273.4,290.3,272.8,290.3z"/>
</g>
</svg>
